<svg xmlns="http://www.w3.org/2000/svg" xmlns:xlink="http://www.w3.org/1999/xlink" width="481.613" height="500.239" viewBox="0 0 481.613 500.239">
  <defs>
    <linearGradient id="linear-gradient" x1="-5.289" y1="0.136" x2="-4.969" y2="0.136" gradientUnits="objectBoundingBox">
      <stop offset="0" stop-color="#001e6f"/>
      <stop offset="0.242" stop-color="#5e87c5"/>
      <stop offset="0.257" stop-color="#5981bf"/>
      <stop offset="0.398" stop-color="#335192"/>
      <stop offset="0.522" stop-color="#172e71"/>
      <stop offset="0.624" stop-color="#06195d"/>
      <stop offset="0.691" stop-color="#001256"/>
      <stop offset="1" stop-color="#003973"/>
    </linearGradient>
    <linearGradient id="linear-gradient-2" x1="-8.27" y1="0.812" x2="-8.546" y2="0.803" gradientUnits="objectBoundingBox">
      <stop offset="0" stop-color="#00457d"/>
      <stop offset="0.301" stop-color="#00427a"/>
      <stop offset="0.519" stop-color="#003871"/>
      <stop offset="0.711" stop-color="#002862"/>
      <stop offset="0.887" stop-color="#00124d"/>
      <stop offset="1" stop-color="#00003c"/>
    </linearGradient>
    <linearGradient id="linear-gradient-3" x1="-8.914" y1="0.979" x2="-8.456" y2="0.973" gradientUnits="objectBoundingBox">
      <stop offset="0" stop-color="#001459"/>
      <stop offset="0.478" stop-color="#4867a3"/>
      <stop offset="0.629" stop-color="#2c3f7b"/>
      <stop offset="0.786" stop-color="#141c58"/>
      <stop offset="0.915" stop-color="#050743"/>
      <stop offset="1" stop-color="#00003c"/>
    </linearGradient>
    <linearGradient id="linear-gradient-4" x1="-13.369" y1="2.098" x2="-13.369" y2="0.994" xlink:href="#linear-gradient"/>
    <linearGradient id="linear-gradient-5" x1="2.916" y1="0.831" x2="2.916" y2="1.148" gradientUnits="objectBoundingBox">
      <stop offset="0" stop-color="#b6480d"/>
      <stop offset="0.23" stop-color="#e05e10"/>
      <stop offset="0.416" stop-color="#e86a0e"/>
      <stop offset="0.629" stop-color="#f77e0b"/>
      <stop offset="0.739" stop-color="#f2780b"/>
      <stop offset="0.885" stop-color="#e6670e"/>
      <stop offset="1" stop-color="#da5511"/>
    </linearGradient>
  </defs>
  <g id="Group_55" data-name="Group 55" transform="translate(-458.452 137.129) rotate(-21)">
    <g id="Group_52" data-name="Group 52" transform="translate(419.235 210.008)">
      <path id="Path_215" data-name="Path 215" d="M548.406,534.328,406.518,247.946l-1.945-3.909c-.269-.767-.378-.912-.313-1.427a2.4,2.4,0,0,1,.481-1.192c.523-.394.07-.294,1.824-1.133l15.667-7.759L453.557,217l7.832-3.878,3.917-1.939,1.959-.968a8.287,8.287,0,0,1,1.391-.632A2.138,2.138,0,0,1,471,210.2c.21.21.131.2.459.7l.974,1.956,1.936,3.917,53.687,108.362,7.762,15.667,3.875,7.829.977,1.959a13.828,13.828,0,0,0,1.973,2.963,11.68,11.68,0,0,0,6.52,3.769,11.962,11.962,0,0,0,7.5-.828c1.6-.741,2.689-1.318,4.06-1.987l7.829-3.878,15.664-7.762,31.33-15.521-4.611-9.3-31.319,15.521-15.669,7.759-7.826,3.881c-1.251.61-2.745,1.382-3.789,1.855a1.586,1.586,0,0,1-1.035.1,1.348,1.348,0,0,1-.9-.515c-.2-.207-.073-.073-.431-.666l-.968-1.959L545.11,336.2l-7.759-15.667L483.659,212.164l-1.936-3.915-.968-1.959a14.739,14.739,0,0,0-1.95-2.924,12.522,12.522,0,0,0-13.546-3.584,19.4,19.4,0,0,0-2.6,1.13l-1.956.974-3.917,1.939-7.837,3.881-31.322,15.518-15.664,7.762a15.265,15.265,0,0,0-5.244,3.853,12.845,12.845,0,0,0-2.781,6.774,13.069,13.069,0,0,0,1.346,7.026l1.936,3.915L539.114,538.936Z" transform="translate(-393.853 -199.072)" fill="#6d6f72" fill-rule="evenodd"/>
      <path id="Path_216" data-name="Path 216" d="M542.052,537.479,400.169,251.094l-1.942-3.912a9.8,9.8,0,0,1-1.021-5.252,9.5,9.5,0,0,1,2.054-5,11.829,11.829,0,0,1,4.166-2.994l15.658-7.759,31.33-15.518c5.339-2.588,10.188-5.168,15.921-7.768a9.237,9.237,0,0,1,9.995,2.647,19.6,19.6,0,0,1,2.448,4.172l1.936,3.917L534.4,321.989l7.756,15.667,3.884,7.826c1.321,2.946,2.261,4.418,4.578,4.905a4.909,4.909,0,0,0,3.078-.333c1.212-.56,2.585-1.27,3.867-1.9l7.84-3.875,15.652-7.762L612.4,321l-1.469-2.949-31.319,15.521-15.669,7.759-7.826,3.881c-1.251.61-2.745,1.382-3.789,1.855a1.586,1.586,0,0,1-1.035.1,1.348,1.348,0,0,1-.9-.515c-.2-.207-.073-.073-.431-.666l-.968-1.959L545.11,336.2l-7.759-15.667L483.659,212.164l-1.936-3.915-.968-1.959a14.739,14.739,0,0,0-1.95-2.924,12.522,12.522,0,0,0-13.546-3.584,19.4,19.4,0,0,0-2.6,1.13l-1.956.974-3.917,1.939-7.837,3.881-31.322,15.518-15.664,7.762a15.265,15.265,0,0,0-5.244,3.853,12.845,12.845,0,0,0-2.781,6.774,13.069,13.069,0,0,0,1.346,7.026l1.936,3.915L539.114,538.936Z" transform="translate(-393.853 -199.072)" fill="#bdbfc1" fill-rule="evenodd"/>
      <path id="Path_217" data-name="Path 217" d="M547.342,534.214,405.459,247.835l-1.945-3.917a3.025,3.025,0,0,1,.249-3.38,5.436,5.436,0,0,1,2.065-1.315l15.664-7.759,31.325-15.524,7.829-3.884,3.926-1.939,1.95-.968a9.666,9.666,0,0,1,1.477-.666,2.856,2.856,0,0,1,3.106.82,4.4,4.4,0,0,1,.557.851l.971,1.961,1.942,3.912,53.684,108.365,7.756,15.664,3.886,7.832.974,1.956a13.127,13.127,0,0,0,1.866,2.8,10.987,10.987,0,0,0,6.133,3.554,11.336,11.336,0,0,0,7.051-.778c1.567-.725,2.686-1.318,4.049-1.978l7.835-3.881,15.661-7.762L614.8,326.28l-4-8.061-31.327,15.521L563.809,341.5l-7.829,3.881c-1.251.607-2.731,1.368-3.794,1.864a2.311,2.311,0,0,1-1.458.148,2,2,0,0,1-1.262-.727c-.243-.249-.168-.216-.534-.814l-.965-1.961-3.878-7.826L536.329,320.4l-53.69-108.362-1.939-3.917-.977-1.959a13.9,13.9,0,0,0-1.852-2.779,11.846,11.846,0,0,0-12.815-3.4,18.536,18.536,0,0,0-2.527,1.1l-1.956.971-3.917,1.939-7.835,3.881L417.5,223.394l-15.664,7.762a14.666,14.666,0,0,0-5.028,3.68,12.183,12.183,0,0,0-2.639,6.408,12.48,12.48,0,0,0,1.287,6.671l1.936,3.915L539.283,538.21Z" transform="translate(-393.426 -198.642)" fill="#1a1818" fill-rule="evenodd"/>
      <path id="Path_218" data-name="Path 218" d="M546.57,534.6,404.678,248.218l-1.936-3.914a4.091,4.091,0,0,1-.476-2.278,3.984,3.984,0,0,1,.828-2.034,6.106,6.106,0,0,1,2.345-1.55l15.667-7.759,31.325-15.521c5.053-2.468,10.826-5.437,15.289-7.5a3.707,3.707,0,0,1,4.035,1.069,5.337,5.337,0,0,1,.688,1.035l.965,1.956,1.945,3.915L529.04,324l7.759,15.664,3.881,7.832.965,1.959a12.169,12.169,0,0,0,1.743,2.611,10.118,10.118,0,0,0,5.666,3.279,10.443,10.443,0,0,0,6.517-.716c1.514-.7,2.667-1.307,4.018-1.967l7.835-3.881,15.667-7.762,31.327-15.515-3.615-7.289-31.327,15.521L563.809,341.5l-7.829,3.881c-1.251.607-2.731,1.368-3.794,1.864a2.311,2.311,0,0,1-1.458.148,2,2,0,0,1-1.262-.727c-.243-.249-.168-.216-.534-.814l-.965-1.961-3.878-7.826L536.329,320.4l-53.69-108.362-1.939-3.917-.977-1.959a13.9,13.9,0,0,0-1.852-2.779,11.846,11.846,0,0,0-12.815-3.4,18.536,18.536,0,0,0-2.527,1.1l-1.956.971-3.917,1.939-7.835,3.881L417.5,223.394l-15.664,7.762a14.666,14.666,0,0,0-5.028,3.68,12.183,12.183,0,0,0-2.639,6.408,12.48,12.48,0,0,0,1.287,6.671l1.936,3.915L539.283,538.21Z" transform="translate(-393.426 -198.642)" fill="#717376" fill-rule="evenodd"/>
      <path id="Path_219" data-name="Path 219" d="M543.458,531.5,401.567,245.117l-1.936-3.914a4.091,4.091,0,0,1-.476-2.278,3.984,3.984,0,0,1,.828-2.034,6.106,6.106,0,0,1,2.345-1.55l15.667-7.759,31.325-15.521c5.053-2.468,10.826-5.437,15.289-7.5a3.707,3.707,0,0,1,4.035,1.069,5.337,5.337,0,0,1,.688,1.035l.965,1.956,1.945,3.915L525.928,320.9l7.759,15.664,3.881,7.832.965,1.959a12.169,12.169,0,0,0,1.743,2.611,10.118,10.118,0,0,0,5.666,3.279,10.443,10.443,0,0,0,6.517-.716c1.514-.7,2.667-1.307,4.018-1.967l7.835-3.881,15.667-7.762,31.327-15.515-1.475-2.966-31.325,15.521-15.664,7.762-7.832,3.878c-2.541,1.142-5.23,3.193-8.386,2.412-3.2-.453-5.039-3.526-6.094-6.083l-3.884-7.829-7.762-15.664L475.207,211.07c-1.385-2.513-2.4-5.428-4.077-7.616a7.02,7.02,0,0,0-7.611-2.012c-5.224,2.381-10.443,5.115-15.661,7.658l-31.336,15.518-15.655,7.762a7.537,7.537,0,0,0-5.006,6.226c-.347,2.854,1.575,5.333,2.745,7.98L540.492,532.968Z" transform="translate(-390.315 -195.541)" fill="#58595c" fill-rule="evenodd"/>
      <path id="Path_220" data-name="Path 220" d="M545.025,534.719,403.131,248.34l-1.936-3.917a5.317,5.317,0,0,1-.6-2.941c.308-2.121,1.3-3.495,3.861-4.583l15.658-7.759,31.336-15.518c5.109-2.5,10.68-5.378,15.42-7.56a4.97,4.97,0,0,1,5.389,1.424,16.131,16.131,0,0,1,1.83,3.26l1.942,3.917,53.69,108.365,7.762,15.661,3.875,7.835a19.682,19.682,0,0,0,2.518,4.289,8.9,8.9,0,0,0,5,2.89,9.2,9.2,0,0,0,5.739-.63c1.449-.672,2.653-1.3,3.993-1.953l7.829-3.878,15.661-7.759,31.33-15.524-2.773-5.571-31.313,15.518-15.669,7.762-7.835,3.881c-1.262.613-2.7,1.363-3.814,1.869a2.95,2.95,0,0,1-1.872.2,2.691,2.691,0,0,1-1.628-.937,4.208,4.208,0,0,1-.621-.965l-.974-1.953-3.881-7.835L535.3,320.26,481.606,211.9l-1.942-3.915-.974-1.953a12.76,12.76,0,0,0-1.757-2.641,11.19,11.19,0,0,0-12.093-3.2c-6.2,2.792-10.714,5.23-16.153,7.863l-31.328,15.521L401.7,231.328a13.769,13.769,0,0,0-4.8,3.5,11.557,11.557,0,0,0-2.5,6.052,11.814,11.814,0,0,0,1.226,6.313l1.933,3.912L539.448,537.487Z" transform="translate(-392.995 -198.213)" fill="#949799" fill-rule="evenodd"/>
      <path id="Path_221" data-name="Path 221" d="M541.334,536.547,399.454,250.165l-1.942-3.917a9.607,9.607,0,0,1-1-5.165c.159-3.615,3.288-6.833,6.122-7.86L418.3,225.46l31.33-15.524c5.328-2.583,10.2-5.174,15.9-7.756a9.066,9.066,0,0,1,9.81,2.6,18.849,18.849,0,0,1,2.429,4.144l1.942,3.915L533.4,321.2l7.762,15.664,3.881,7.826c1.307,2.921,2.311,4.511,4.684,4.992a5.041,5.041,0,0,0,3.176-.347c1.231-.562,2.594-1.268,3.884-1.894l7.826-3.884,15.664-7.759,31.339-15.518-.954-1.894-31.313,15.518-15.669,7.762-7.835,3.881c-1.262.613-2.7,1.363-3.814,1.869a2.95,2.95,0,0,1-1.872.2,2.691,2.691,0,0,1-1.628-.937,4.208,4.208,0,0,1-.621-.965l-.974-1.953-3.881-7.835L535.3,320.26,481.606,211.9l-1.942-3.915-.974-1.953a12.76,12.76,0,0,0-1.757-2.641,11.19,11.19,0,0,0-12.093-3.2c-6.2,2.792-10.714,5.23-16.153,7.863l-31.328,15.521L401.7,231.328a13.769,13.769,0,0,0-4.8,3.5,11.557,11.557,0,0,0-2.5,6.052,11.814,11.814,0,0,0,1.226,6.313l1.933,3.912L539.448,537.487Z" transform="translate(-392.995 -198.213)" fill="#9da0a2" fill-rule="evenodd"/>
      <path id="Path_222" data-name="Path 222" d="M543.665,534.628,401.779,248.246l-1.933-3.917a6.292,6.292,0,0,1-.7-3.456c.283-2.454,1.757-4.25,4.382-5.33l15.661-7.754,31.33-15.524c5.162-2.518,10.568-5.333,15.535-7.6a5.893,5.893,0,0,1,6.391,1.687c1.354,1.71,2.611,4.972,3.912,7.381l53.687,108.362,7.762,15.667,3.875,7.829c.926,2.353,3.232,6.251,6.875,6.679a8.213,8.213,0,0,0,5.154-.56c1.4-.646,2.641-1.3,3.968-1.942l7.829-3.878,15.669-7.759L612.5,322.606l-1.99-4.012-31.325,15.518-15.664,7.762-7.84,3.878c-1.267.616-2.681,1.352-3.839,1.88a3.741,3.741,0,0,1-2.359.255,3.453,3.453,0,0,1-2.059-1.189,5.021,5.021,0,0,1-.747-1.139L545.7,343.6l-3.881-7.832L534.067,320.1l-53.69-108.362-1.939-3.914-.977-1.961a12.429,12.429,0,0,0-1.637-2.468,10.4,10.4,0,0,0-11.237-2.974c-6.007,2.711-10.663,5.21-16.058,7.823L417.2,223.769l-15.655,7.759A13.075,13.075,0,0,0,397,234.821a10.675,10.675,0,0,0-2.311,5.624,10.918,10.918,0,0,0,1.136,5.873l1.936,3.917L539.652,536.615Z" transform="translate(-392.48 -197.699)" fill="#c2c4c6" fill-rule="evenodd"/>
      <path id="Path_223" data-name="Path 223" d="M542.563,534.613,400.68,248.228c-1.186-2.675-3.067-5.129-2.714-7.807a7.222,7.222,0,0,1,4.824-5.98l15.672-7.759,31.322-15.518c5.21-2.535,10.476-5.294,15.633-7.647a6.7,6.7,0,0,1,7.261,1.922c1.584,2.054,2.672,5.07,4.032,7.555L530.4,321.359l7.759,15.664,3.884,7.826c1.019,2.5,2.991,5.806,6.3,6.251a7.452,7.452,0,0,0,4.659-.506c1.354-.624,2.625-1.29,3.937-1.928l7.835-3.884,15.664-7.759L611.766,321.5l-1.379-2.77-31.311,15.521L563.4,342.017l-7.824,3.878c-1.281.624-2.672,1.346-3.864,1.889a4.32,4.32,0,0,1-2.722.3,4.081,4.081,0,0,1-2.381-1.374,16.686,16.686,0,0,1-1.8-3.223l-3.881-7.835-7.759-15.661L479.475,211.624l-1.939-3.915a19.656,19.656,0,0,0-2.524-4.3,9.82,9.82,0,0,0-10.61-2.8c-5.87,2.653-10.619,5.19-15.991,7.8l-31.319,15.521-15.664,7.759a12.446,12.446,0,0,0-4.351,3.139,10.145,10.145,0,0,0-2.188,5.311,10.365,10.365,0,0,0,1.086,5.557l1.934,3.915L539.8,535.978Z" transform="translate(-392.106 -197.323)" fill="#e0e1e3" fill-rule="evenodd"/>
      <path id="Path_224" data-name="Path 224" d="M541.63,534.649,399.742,248.262c-1.136-2.611-3.131-5.126-2.784-8.2a7.966,7.966,0,0,1,5.224-6.556l15.672-7.756,31.319-15.524c5.238-2.549,10.4-5.252,15.714-7.678a7.434,7.434,0,0,1,8.05,2.129c1.791,2.362,2.728,5.154,4.13,7.709L530.76,320.755l7.756,15.661,3.884,7.835c1.1,2.625,2.776,5.406,5.8,5.862,2.938.753,5.537-1.2,8.129-2.378l7.835-3.884,15.664-7.762,31.33-15.515-.865-1.724L578.976,334.37,563.3,342.132l-7.823,3.881c-1.281.627-2.655,1.338-3.859,1.892a4.781,4.781,0,0,1-3.014.327c-2.264-.49-3.151-1.869-4.494-4.838l-3.878-7.829L532.48,319.9l-53.69-108.365-1.939-3.915a19.661,19.661,0,0,0-2.468-4.206,9.364,9.364,0,0,0-10.124-2.678c-5.767,2.613-10.594,5.179-15.932,7.776l-31.333,15.521-15.661,7.756a11.962,11.962,0,0,0-4.206,3.022,9.679,9.679,0,0,0-2.079,5.073,9.792,9.792,0,0,0,1.038,5.316l1.936,3.915L539.906,535.494Z" transform="translate(-391.816 -197.037)" fill="#f3f4f4" fill-rule="evenodd"/>
      <path id="Path_225" data-name="Path 225" d="M540.826,534.587,398.943,248.21c-1.1-2.56-3.176-5.129-2.837-8.5a8.512,8.512,0,0,1,5.523-7l15.672-7.759,31.328-15.521c5.269-2.563,10.33-5.227,15.773-7.706a8.007,8.007,0,0,1,8.66,2.289c1.95,2.6,2.762,5.221,4.208,7.832L530.957,320.2l7.759,15.667,3.875,7.829c1.175,2.725,2.63,5.092,5.434,5.563,2.625.719,5.087-1.108,7.756-2.334l7.832-3.878,15.658-7.765,31.333-15.518-.395-.8-31.325,15.521-15.667,7.759-7.829,3.881c-1.29.627-2.644,1.335-3.884,1.9a5.246,5.246,0,0,1-3.3.358c-2.457-.481-3.534-2.2-4.813-5.09l-3.875-7.829-7.765-15.664L478.071,211.443c-1.5-2.695-2.138-5.037-4.343-8.022a8.894,8.894,0,0,0-9.614-2.544c-5.658,2.566-10.563,5.168-15.882,7.748L416.9,224.147l-15.667,7.762c-2.829,1.027-5.854,4.169-6.027,7.712a9.46,9.46,0,0,0,.988,5.067l1.947,3.914,141.88,286.382Z" transform="translate(-391.516 -196.734)" fill="#fff" fill-rule="evenodd"/>
    </g>
    <g id="Group_54" data-name="Group 54" transform="translate(593.617 192.99)">
      <path id="Path_226" data-name="Path 226" d="M647.23,192.99,498.456,266.913l24.7,49.714L671.935,242.7Zm-18.252,40.063a6.553,6.553,0,1,1,8.778,2.955A6.563,6.563,0,0,1,628.979,233.053Z" transform="translate(-380.148 -192.99)" fill-rule="evenodd" fill="url(#linear-gradient)"/>
      <g id="Group_53" data-name="Group 53" transform="translate(40.092 73.781)">
        <path id="Path_227" data-name="Path 227" d="M568.312,253.526l-12.679-25.52L473.5,268.812,482.53,287Z" transform="translate(-465.119 -203.809)" fill-rule="evenodd" fill="url(#linear-gradient-2)"/>
        <path id="Path_228" data-name="Path 228" d="M549,219.358l-78.5,48.147L483.067,292.8l82.142-40.817Z" transform="translate(-470.503 -219.358)" fill-rule="evenodd" fill="url(#linear-gradient-3)"/>
      </g>
      <path id="Path_229" data-name="Path 229" d="M496.5,236.541,460.018,254.67c-2.876,1.427-4.485,4.026-3.6,5.812l14.164,28.513c.884,1.782,3.937,2.068,6.811.638l36.482-18.126Z" transform="translate(-456.174 -114.681)" fill-rule="evenodd" fill="url(#linear-gradient-4)"/>
    </g>
    <rect id="Rectangle_61" data-name="Rectangle 61" width="113.01" height="299.707" transform="matrix(0.896, -0.444, 0.444, 0.896, 379.736, 290.032)" fill="url(#linear-gradient-5)"/>
  </g>
</svg>
